<?xml version="1.0" encoding="UTF-8"?>
<svg xmlns="http://www.w3.org/2000/svg" version="1.1" viewBox="0 0 765.96 285.96">
  <defs>
    <style>
      .cls-1 {
        fill: #fff;
      }
    </style>
  </defs>
  <!-- Generator: Adobe Illustrator 28.6.0, SVG Export Plug-In . SVG Version: 1.2.0 Build 709)  -->
  <g>
    <g id="Capa_1">
      <g>
        <path class="cls-1" d="M192.94,155.15c-.42-1.65-2.12-2.65-3.77-2.21-1.66.42-2.65,2.11-2.22,3.77,5.03,19.39,2.09,39.51-8.27,56.66-10.36,17.14-26.82,29.11-46.34,33.68-38.85,9.1-78.44-14.97-88.28-53.66-5.02-19.75-1.5-39.73,8.24-56.02,5.94,11.24,14.76,20.74,25.89,27.63,8.8,5.45,18.43,8.88,28.34,10.25l-2.35,10.99c-.36,1.67.71,3.31,2.38,3.67.22.05.44.07.65.07,1.43,0,2.72-1,3.03-2.45l2.49-11.68c3.75.18,7.53.06,11.3-.36l.16,11.68c.02,1.7,1.41,3.06,3.09,3.06h.05c1.71-.02,3.07-1.43,3.05-3.14l-.17-12.54c1.47-.29,2.93-.61,4.39-.99,1.2-.31,2.39-.65,3.58-1.03l5.91,11c.55,1.04,1.63,1.63,2.73,1.63.49,0,1-.11,1.47-.37,1.5-.81,2.06-2.69,1.26-4.19l-5.5-10.22c3.51-1.44,6.89-3.16,10.11-5.13l7.76,8.89c.61.7,1.47,1.05,2.33,1.05.72,0,1.46-.25,2.04-.76,1.28-1.12,1.42-3.08.3-4.38l-7.23-8.29c8.89-6.54,16.3-15.08,21.48-25.09,1.43-2.77,1.13-6.17-.77-8.66-19.8-26.04-53.79-38.18-84.56-30.21-17.1,4.44-31.49,14.14-41.89,26.94-.85-2.53-1.56-5.13-2.12-7.8-6.99-33.14,12.89-66.94,45.26-76.94,17.53-5.41,35.98-3.48,51.96,5.42,15.99,8.92,27.32,23.57,31.92,41.29.42,1.65,2.12,2.65,3.77,2.21,1.65-.42,2.65-2.11,2.22-3.77-5.02-19.36-17.41-35.39-34.88-45.14-17.47-9.74-37.65-11.85-56.81-5.92-35.4,10.93-57.14,47.89-49.5,84.14.91,4.31,2.18,8.48,3.79,12.47-12.22,18.23-16.96,41.37-11.15,64.21,9.15,35.95,41.98,60.25,77.69,60.25,5.96,0,11.99-.68,18-2.09,21.17-4.96,39.01-17.92,50.24-36.5,11.23-18.59,14.41-40.41,8.96-61.43ZM95.52,104.23c.5-.14,1-.29,1.5-.43,5.54-1.44,11.2-2.16,16.86-2.22,23.29-.25,46.48,10.8,61.22,30.18.19.25.29.53.35.82.08.42.05.86-.16,1.25-5.2,10.04-12.85,18.47-22.07,24.64-5.16,3.46-10.81,6.21-16.82,8.12-1.12.35-2.24.68-3.38.97-17.71,4.6-36.03,1.81-51.58-7.83-3.96-2.45-7.59-5.27-10.88-8.4-5.41-5.14-9.88-11.12-13.25-17.75,0,0,0-.01,0-.02-.08-.15-.15-.31-.22-.46-.28-.56-.56-1.12-.82-1.69,0,0,0,0,0,0,0,0,0,0,0,0,9.41-12.77,22.96-22.59,39.28-27.19Z"/>
        <g>
          <path class="cls-1" d="M320.61,162.88h60.72l-2.53,3.36h-71.34V54.32s74.43,0,74.43,0l-2.92,2.96h-58.36l.02,43.1h59.69l-2.33,2.92h-57.35l-.02,59.59Z"/>
          <path class="cls-1" d="M484.61,133.98l-2.21,1.03,20.62,31.23h-16.63l-14.35-22.59c-2.15-3.39-5.98-5.43-9.98-5.35-1.08.03-2.18.05-3.1.05h-30.26v27.88s-13.41,0-13.41,0V54.41s43.68,0,43.68,0c25.87,0,48.56,19.31,48.56,41.32v1.3c0,15.91-7.06,28.49-19.87,35.43-1.54.83-3.02,1.52-3.04,1.52ZM494.02,97.09v-1.43c0-23.42-14.42-39.78-35.07-39.78h-30.26v80.98h30.26c20.65,0,35.07-16.35,35.07-39.77Z"/>
          <path class="cls-1" d="M557.26,162.88h60.72l-2.53,3.36h-71.34V54.32s74.43,0,74.43,0l-2.92,2.96h-58.36l.02,43.1h59.68l-2.33,2.92h-57.35l-.02,59.59Z"/>
          <path class="cls-1" d="M730.38,141.13c0,20.75-22.02,28.15-42.63,28.15s-35.92-8.59-40.78-24.24l7.02-1.4c3.08,10.84,12.07,22.8,36.73,22.8,16.05,0,28.23-10.13,28.33-23.57.1-13.79-13.83-18.82-33.11-25.77l-4.75-1.71c-16.92-6.08-36.1-12.98-36.1-32.23,0-11.51,12.59-28.56,39.62-28.56,17.87,0,31.87,6.3,40.65,18.26l-6.3,2.35c-8.41-12.12-20.43-18.77-34.03-18.77s-20.87,5.27-24.39,9.7c-4.46,5.61-5.45,12.7-4.47,16.91,2.61,11.31,13.29,15.07,29.46,20.77,2.05.72,4.2,1.48,6.44,2.29,16.45,5.95,38.32,16.05,38.31,35.02Z"/>
        </g>
        <g>
          <path class="cls-1" d="M305.4,223.58h2.92l5.76,20.39,8.12-20.39h.59l8.01,20.39,5.88-20.39h2.88l-8.12,28.31h-.55l-8.36-21.41-8.6,21.41h-.51l-8.01-28.31Z"/>
          <path class="cls-1" d="M344.32,241.64c.12,4.81,3.39,8.32,7.89,8.32s6.47-2.48,8.01-5.01l2.25,1.18c-2.13,4.18-5.4,6.27-9.98,6.27-6.94,0-10.92-5.32-10.92-10.92s4.22-11.08,10.77-11.08c5.95,0,10.77,4.3,10.84,11.24h-18.85ZM360.21,239.28c-1.1-4.34-4.22-6.27-7.85-6.27s-6.55,2.01-7.77,6.27h15.62Z"/>
          <path class="cls-1" d="M367.79,222.87h2.68v29.02h-2.68v-29.02Z"/>
          <path class="cls-1" d="M375.67,222.87h2.68v29.02h-2.68v-29.02Z"/>
          <path class="cls-1" d="M386.64,234.7c2.17-2.84,4.77-4.3,7.85-4.3,4.58,0,7.77,3.15,7.77,9.74v11.75h-2.68v-11.4c0-4.93-1.54-7.65-5.6-7.65-2.25,0-4.1.99-5.52,2.84-1.58,2.05-1.81,4.1-1.81,7.41v8.79h-2.68v-20.94h2.68v3.75Z"/>
          <path class="cls-1" d="M409.78,241.64c.12,4.81,3.39,8.32,7.89,8.32s6.47-2.48,8.01-5.01l2.25,1.18c-2.13,4.18-5.4,6.27-9.98,6.27-6.94,0-10.92-5.32-10.92-10.92s4.22-11.08,10.77-11.08c5.95,0,10.77,4.3,10.84,11.24h-18.85ZM425.67,239.28c-1.1-4.34-4.22-6.27-7.85-6.27s-6.55,2.01-7.77,6.27h15.62Z"/>
          <path class="cls-1" d="M433.36,247.52c1.34,1.5,2.8,2.33,4.38,2.33,2.05,0,3.86-1.5,3.86-3.47,0-1.22-.71-2.37-1.73-2.92-4.81-2.68-7.26-3.83-7.26-7.49,0-3.31,2.56-5.56,5.76-5.56,2.29,0,4.02,1.1,5.8,2.84l-1.73,1.77c-1.26-1.22-2.52-2.01-4.22-2.01s-3.15,1.22-3.15,2.8c0,1.07.67,2.25,1.62,2.8,4.81,2.8,7.49,3.86,7.49,7.65,0,3.27-2.52,6.19-6.31,6.19-2.33,0-4.69-1.06-6.19-3l1.7-1.93Z"/>
          <path class="cls-1" d="M448.66,247.52c1.34,1.5,2.8,2.33,4.38,2.33,2.05,0,3.86-1.5,3.86-3.47,0-1.22-.71-2.37-1.73-2.92-4.81-2.68-7.26-3.83-7.26-7.49,0-3.31,2.56-5.56,5.76-5.56,2.29,0,4.02,1.1,5.8,2.84l-1.73,1.77c-1.26-1.22-2.52-2.01-4.22-2.01s-3.15,1.22-3.15,2.8c0,1.07.67,2.25,1.62,2.8,4.81,2.8,7.49,3.86,7.49,7.65,0,3.27-2.52,6.19-6.31,6.19-2.33,0-4.69-1.06-6.19-3l1.7-1.93Z"/>
          <path class="cls-1" d="M490.39,230.96h2.84v10.84c0,7.06-3.19,10.61-9.19,10.61s-9.23-3.55-9.23-10.61v-10.84h2.84v10.21c0,2.21,0,4.02.59,5.28.99,2.13,3.15,3.35,5.8,3.35,1.93,0,3.63-.71,4.73-1.85,1.66-1.77,1.62-3.79,1.62-6.78v-10.21Z"/>
          <path class="cls-1" d="M501.82,234.7c2.17-2.84,4.77-4.3,7.85-4.3,4.58,0,7.77,3.15,7.77,9.74v11.75h-2.68v-11.4c0-4.93-1.54-7.65-5.6-7.65-2.25,0-4.1.99-5.52,2.84-1.58,2.05-1.81,4.1-1.81,7.41v8.79h-2.68v-20.94h2.68v3.75Z"/>
          <path class="cls-1" d="M541.45,248.31c-2.29,2.76-5.16,4.1-8.44,4.1-6.11,0-10.73-5.09-10.73-11.04s4.73-10.96,10.81-10.96c3.39,0,6.27,1.46,8.36,4.38v-11.91h2.68v29.02h-2.68v-3.59ZM525.05,241.44c0,4.53,3.55,8.52,8.24,8.52,4.3,0,8.32-3.23,8.32-8.44,0-4.85-3.59-8.52-8.28-8.52s-8.28,3.94-8.28,8.44Z"/>
          <path class="cls-1" d="M561.6,223.58h2.84v10.61l11.32-10.61h3.83l-13.6,12.7,14.67,15.62h-3.75l-12.46-13.21v13.21h-2.84v-28.31Z"/>
          <path class="cls-1" d="M605.3,241.48c0,5.95-4.61,10.96-10.92,10.96s-10.92-5.01-10.92-10.96,4.65-11.08,10.92-11.08,10.92,5.09,10.92,11.08ZM586.21,241.52c0,4.58,3.43,8.32,8.16,8.32s8.16-3.75,8.16-8.32-3.71-8.52-8.16-8.52-8.16,3.86-8.16,8.52Z"/>
          <path class="cls-1" d="M609.99,247.52c1.34,1.5,2.8,2.33,4.38,2.33,2.05,0,3.86-1.5,3.86-3.47,0-1.22-.71-2.37-1.73-2.92-4.81-2.68-7.26-3.83-7.26-7.49,0-3.31,2.56-5.56,5.76-5.56,2.29,0,4.02,1.1,5.8,2.84l-1.73,1.77c-1.26-1.22-2.52-2.01-4.22-2.01s-3.15,1.22-3.15,2.8c0,1.07.67,2.25,1.62,2.8,4.81,2.8,7.49,3.86,7.49,7.65,0,3.27-2.52,6.19-6.31,6.19-2.33,0-4.69-1.06-6.19-3l1.7-1.93Z"/>
          <path class="cls-1" d="M642.48,251.89h-2.68v-10.73c0-1.62-.16-2.96-.2-3.9-.12-2.29-1.97-4.26-4.73-4.26-1.85,0-3.71.91-4.89,2.44-1.5,1.93-1.77,4.42-1.77,7.57v8.87h-2.68v-20.94h2.68v3.59c1.85-2.68,4.18-4.14,7.18-4.14,3.19,0,5.48,1.66,6.63,5.05,1.85-3.35,4.61-5.05,7.69-5.05,4.34,0,7.14,3.12,7.14,9.07v12.42h-2.68v-11.44c0-1.54-.2-2.76-.24-3.55-.12-1.85-1.89-3.9-4.73-3.9-2.6,0-4.89,1.58-5.95,4.26-.67,1.7-.75,3.55-.75,5.48v9.15Z"/>
          <path class="cls-1" d="M664.33,241.64c.12,4.81,3.39,8.32,7.89,8.32s6.47-2.48,8.01-5.01l2.25,1.18c-2.13,4.18-5.4,6.27-9.98,6.27-6.94,0-10.92-5.32-10.92-10.92s4.22-11.08,10.77-11.08c5.95,0,10.77,4.3,10.84,11.24h-18.85ZM680.22,239.28c-1.1-4.34-4.22-6.27-7.85-6.27s-6.55,2.01-7.77,6.27h15.62Z"/>
          <path class="cls-1" d="M690.59,223.15h2.68v7.81h4.3v2.37h-4.3v18.57h-2.68v-18.57h-3.71v-2.37h3.71v-7.81Z"/>
          <path class="cls-1" d="M704.75,224.53c0,1.22-1.03,2.25-2.25,2.25s-2.21-1.03-2.21-2.25,1.03-2.21,2.21-2.21,2.25.99,2.25,2.21ZM701.2,230.96h2.68v20.94h-2.68v-20.94Z"/>
          <path class="cls-1" d="M709.48,222.87h2.68v16.52l9.66-8.44h3.98l-11.47,9.98,12.14,10.96h-3.83l-10.49-9.42v9.42h-2.68v-29.02Z"/>
        </g>
      </g>
    </g>
  </g>
</svg>